<?xml version="1.0" standalone="no"?>
<!DOCTYPE svg PUBLIC "-//W3C//DTD SVG 1.1//EN" "http://www.w3.org/Graphics/SVG/1.1/DTD/svg11.dtd" >
<svg xmlns="http://www.w3.org/2000/svg">
<metadata></metadata>
<defs>
<font id="din_mittelschrifmittelschrift" horiz-adv-x="551" >
<font-face units-per-em="1000" ascent="800" descent="-200" />
<missing-glyph horiz-adv-x="285" />
<glyph unicode="&#xd;" horiz-adv-x="285" />
<glyph unicode=" "  horiz-adv-x="285" />
<glyph unicode="&#x09;" horiz-adv-x="285" />
<glyph unicode="&#xa0;" horiz-adv-x="285" />
<glyph unicode="!" horiz-adv-x="198" d="M115 79h-82v-79h82v79zM123 561h-98l27 -422h44z" />
<glyph unicode="&#x22;" horiz-adv-x="264" d="M86 561h-61v-143h61v143zM128 561h61v-143h-61v143z" />
<glyph unicode="#" horiz-adv-x="477" d="M148 557h66l-22 -167h73l22 167h68l-24 -167h71v-54h-78l-14 -111h68v-53h-75l-23 -172h-67l23 172h-73l-23 -172h-66l23 172h-72v53h79l15 111h-69v54h76zM170 225h73l15 111h-74z" />
<glyph unicode="$" horiz-adv-x="447" d="M185 620h43v-54q87 -8 130 -54l-43 -58q-45 39 -87 40v-175q56 -2 97.5 -40t44.5 -109q2 -58 -35.5 -114t-106.5 -61v-85h-43v84q-96 9 -159 76l54 59q50 -51 105 -60v178q-60 12 -97 48.5t-39 112.5q1 87 49 122t87 35v55zM185 330v164q-53 -20 -56 -81q0 -59 56 -83z M228 69q56 11 65 88q-6 71 -65 83v-171z" />
<glyph unicode="%" horiz-adv-x="434" d="M284 42q-14 0 -22 10t-8 31v30q0 21 8 33.5t23 12.5t20.5 -12t5.5 -33v-31q0 -20 -6 -30.5t-21 -10.5zM282 -5q39 0 58.5 20t19.5 58v51q0 38 -19 58t-57 20t-56.5 -20.5t-18.5 -58.5v-51q0 -38 18.5 -57.5t54.5 -19.5zM81 3h-55l265 561h55zM104 564q-39 0 -58.5 -20 t-19.5 -58v-51q0 -38 19 -58t57 -20t56.5 20.5t18.5 58.5v51q0 38 -18.5 57.5t-54.5 19.5zM102 520q14 0 22 -10t8 -31v-30q0 -21 -8 -33.5t-23 -12.5t-20.5 12t-5.5 33v31q0 20 6 30.5t21 10.5z" />
<glyph unicode="&#x26;" horiz-adv-x="583" d="M213 565q55 0 90.5 -35t35.5 -91q0 -87 -91 -124l116 -143q32 40 53 93l71 -32q-30 -69 -74 -117l94 -116h-93l-55 64q-69 -63 -160 -68q-159 7 -175 173q3 109 107 163q-43 57 -45 107q0 55 35 90.5t91 35.5zM205 368q46 18 65 72q0 21 -16 38.5t-41 17.5 q-21 0 -36 -9.5t-19 -25.5t-1 -27.5t48 -65.5zM202 66q65 1 112 51l-137 163q-50 -18 -67 -41t-17 -68q0 -38 29 -71.5t80 -33.5z" />
<glyph unicode="'" horiz-adv-x="161" d="M86 561h-61v-143h61v143z" />
<glyph unicode="(" horiz-adv-x="250" d="M142 -79h33q-65 143 -73 319q8 177 73 320h-33q-104 -133 -117 -320q13 -183 117 -319z" />
<glyph unicode=")" horiz-adv-x="250" d="M58 -79h-33q65 143 73 319q-8 177 -73 320h33q104 -133 117 -320q-13 -183 -117 -319z" />
<glyph unicode="*" horiz-adv-x="315" d="M216 368l-57 37v-77h-53v77l-57 -37l-24 37l62 39l-62 40l24 37l57 -37v77h53v-77l57 37l24 -37l-62 -40l62 -39z" />
<glyph unicode="+" horiz-adv-x="502" d="M193 402h67v-172h168v-58h-168v-172h-67v172h-168v58h168v172z" />
<glyph unicode="," horiz-adv-x="183" d="M25 82h83v-82l-83 -58v140z" />
<glyph unicode="-" horiz-adv-x="337" d="M25 179v80h237v-80h-237z" />
<glyph unicode="." horiz-adv-x="183" d="M25 82h83v-82h-83v82z" />
<glyph unicode="/" horiz-adv-x="353" d="M279 566h-63l-191 -571h63z" />
<glyph unicode="0" horiz-adv-x="424" d="M186 76q38 0 56 23t21 121v118q-3 102 -21 124t-56 22q-40 0 -59 -22t-20 -124v-118q0 -98 19.5 -121t59.5 -23zM185 565q74 -1 119 -46.5t42 -154.5v-165q-2 -85 -44 -143.5t-119 -58.5q-74 0 -116 58.5t-42 142.5v166q0 84 42.5 142.5t117.5 58.5z" />
<glyph unicode="1" horiz-adv-x="260" d="M102 561h83v-561h-82v471l-78 -53v90z" />
<glyph unicode="2" horiz-adv-x="428" d="M148 561q164 6 197 -122q8 -82 -25 -131l-188 -226h213v-82h-320v82l233 285q29 81 -44 112q-90 24 -115 -81h-74q8 130 123 163z" />
<glyph unicode="3" horiz-adv-x="428" d="M180 566q73 2 118.5 -47t45.5 -113q3 -90 -59 -115q68 -34 68 -124q0 -74 -46 -122.5t-118 -48.5q-71 0 -117.5 40t-46.5 103h81q0 -17 19.5 -39t58.5 -22q43 0 64.5 22t21.5 66t-23 67.5t-98 20.5v72q77 0 96.5 26t19.5 53q1 30 -21 55.5t-58 23.5q-36 1 -58 -25 t-22 -41h-81q0 48 44 98t111 50z" />
<glyph unicode="4" horiz-adv-x="461" d="M215 561h90l-187 -400h141v159h83v-159h44v-79h-44v-82h-83v82h-234v82z" />
<glyph unicode="5" horiz-adv-x="427" d="M33 561h304v-77h-226v-132q107 73 194 -11q47 -46 44 -144q0 -90 -33 -140q-44 -58 -127 -61q-151 6 -164 148h82q17 -85 109 -62q53 24 50 117q9 71 -48 104q-67 22 -107 -49h-78v307z" />
<glyph unicode="6" horiz-adv-x="424" d="M196 561h92l-119 -233q172 24 180 -156q-15 -171 -168 -176q-146 4 -156 172q4 70 54 168zM182 77q81 0 81 91t-81 91q-76 0 -76 -91t76 -91z" />
<glyph unicode="7" horiz-adv-x="420" d="M25 561h320v-73l-189 -488h-90l186 479h-149v-80h-78v162z" />
<glyph unicode="8" horiz-adv-x="436" d="M193 561q-74 0 -117.5 -43.5t-43.5 -110.5q0 -63 54 -112q-61 -61 -61 -125q0 -87 47.5 -130t120.5 -43q65 0 116.5 43t51.5 128q-1 66 -62 127q54 49 54 112q0 67 -45 110.5t-115 43.5zM192 77q-37 0 -62 25t-25 63q0 39 25 63.5t62 24.5q38 0 64 -24.5t26 -62.5 q0 -39 -26 -64t-64 -25zM193 325q-32 0 -54.5 22.5t-22.5 56.5q0 35 22.5 57.5t54.5 22.5t54.5 -22.5t22.5 -56.5q0 -35 -22.5 -57.5t-54.5 -22.5z" />
<glyph unicode="9" horiz-adv-x="424" d="M178 0h-92l119 233q-172 -24 -180 156q15 171 168 176q146 -4 156 -172q-4 -70 -54 -168zM192 484q-81 0 -81 -91t81 -91q76 0 76 91t-76 91z" />
<glyph unicode=":" horiz-adv-x="183" d="M25 263h83v-82h-83v82zM25 82h83v-82h-83v82z" />
<glyph unicode=";" horiz-adv-x="183" d="M25 263h83v-82h-83v82zM25 82h83v-82l-83 -58v140z" />
<glyph unicode="&#x3c;" horiz-adv-x="701" d="M389 228l22 -107q1 -4 1 -7q0 -13 -12 -13q-9 0 -17 6l-268 201l268 202q8 6 17 6q12 0 12 -13q0 -3 -1 -7l-22 -108h212v-160h-212z" />
<glyph unicode="=" horiz-adv-x="504" d="M25 152h404v-65h-404v65zM25 311h404v-65h-404v65z" />
<glyph unicode="&#x3e;" horiz-adv-x="704" d="M326 107q-8 -6 -17 -6q-11 0 -11 13v7l22 107h-212v160h212l-22 108v7q0 13 11 13q9 0 17 -6l268 -202z" />
<glyph unicode="?" horiz-adv-x="405" d="M177 565q73 1 113 -47t36 -104q-2 -47 -22 -78l-73 -95q-13 -18 -15 -36v-66h-82v66q0 16 13 46l93 134q20 63 -32 99q-99 24 -107 -82h-74q-2 80 41.5 120t108.5 43zM134 82h83v-82h-83v82z" />
<glyph unicode="@" horiz-adv-x="687" d="M387 565q156 -6 219.5 -83t58.5 -148q15 -162 -165 -227q-81 2 -75 56q-62 -69 -141 -47q-54 32 -71 73q-13 74 25.5 148t117.5 102q35 13 75 1t61 -55l12 41h45l-65 -221q-23 -39 1.5 -46.5t64.5 29t57 123.5q8 82 -50 140q-78 54 -164 56q-124 -11 -178.5 -73 t-55.5 -154q5 -172 181 -218q70 -10 132 -0.5t125 69.5h51q-48 -69 -108 -102t-150 -33q-129 6 -201 70q-92 81 -94 213q3 117 76 199.5t216 86.5zM311 164q59 -10 95 28t59 107q3 62 -31 82t-65 7q-75 -30 -94 -133q-17 -62 36 -91z" />
<glyph unicode="A" horiz-adv-x="536" d="M230 561h72l203 -561h-90l-46 127h-209l-45 -127h-90zM180 198h174l-88 245z" />
<glyph unicode="B" horiz-adv-x="452" d="M18 561h250q111 -11 135 -110q25 -115 -82 -159q107 -62 90 -161q-27 -117 -143 -131h-250v561zM105 81h146q65 6 77 81q-12 78 -77 84h-146v-165zM104 326h142q63 5 74 77q-11 75 -74 81h-142v-158z" />
<glyph unicode="C" horiz-adv-x="467" d="M230 561q156 3 195 -159h-90q-21 68 -103 80q-115 -11 -115 -119q-5 -81 1 -165q-1 -102 116 -119q82 4 101 77h90q-41 -164 -193 -160q-175 12 -200 191q-6 96 0 192q27 183 198 182z" />
<glyph unicode="D" horiz-adv-x="468" d="M112 477h116q52 1 83.5 -40t28.5 -113v-86q2 -79 -30 -118t-82 -41h-116v398zM26 561v-561h202q77 2 135 55.5t59 167.5v121q4 99 -51.5 157.5t-142.5 59.5h-202z" />
<glyph unicode="E" horiz-adv-x="426" d="M25 564h361v-85h-274v-157h233v-77h-233v-165h274v-80h-361v564z" />
<glyph unicode="F" horiz-adv-x="423" d="M25 564h361v-85h-275v-162h234v-79h-234v-238h-86v564z" />
<glyph unicode="G" horiz-adv-x="458" d="M229 565q71 0 131 -50.5t61 -114.5h-90q1 28 -32 55.5t-71 27.5q-44 0 -79 -31.5t-35 -79.5v-170q0 -57 31.5 -88.5t82.5 -32.5q43 0 78.5 31.5t31.5 63.5v54h-111v78h198v-115q3 -82 -52 -137.5t-146 -55.5q-92 0 -147 59t-53 143v177q0 67 55.5 125.5t146.5 60.5z" />
<glyph unicode="H" horiz-adv-x="453" d="M25 561h84v-239h221v239h85v-561h-85v245h-221v-245h-84v561z" />
<glyph unicode="I" horiz-adv-x="142" d="M25 561h86v-561h-86v561z" />
<glyph unicode="J" horiz-adv-x="386" d="M263 561h87v-384q-10 -163 -175 -181q-114 7 -150 74l68 52q31 -43 82 -41q32 1 61.5 26t26.5 70v384z" />
<glyph unicode="K" horiz-adv-x="491" d="M25 561h83v-289l234 289h97l-179 -225l196 -336h-94l-154 277l-100 -109v-168h-83v561z" />
<glyph unicode="L" horiz-adv-x="407" d="M25 561h86v-481h274v-80h-360v561z" />
<glyph unicode="M" horiz-adv-x="544" d="M25 561h81l160 -363l159 363h79v-561h-85v348l-120 -266h-70l-119 266v-348h-85v561z" />
<glyph unicode="N" horiz-adv-x="486" d="M25 561h82l253 -400v400h84v-561h-81l-252 397v-397h-86v561z" />
<glyph unicode="O" horiz-adv-x="457" d="M226 478q-52 0 -84.5 -34.5t-28.5 -105.5v-115q-3 -81 33.5 -111t79.5 -31q38 -1 78 33t36 109v115q0 71 -33 107t-81 33zM227 565q75 0 138 -62.5t63 -138.5v-165q-1 -85 -53.5 -143.5t-148.5 -58.5q-93 0 -147 58.5t-53 142.5v166q0 84 54 142.5t147 58.5z" />
<glyph unicode="P" horiz-adv-x="433" d="M25 561h210q77 0 127 -48t50 -124q0 -74 -49.5 -122.5t-127.5 -48.5h-126v-218h-84v561zM109 299h131q41 0 67.5 25t26.5 65q0 39 -26.5 65t-68.5 26h-130v-181z" />
<glyph unicode="Q" horiz-adv-x="504" d="M227 565q75 0 138 -62.5t63 -138.5v-165q-7 -71 -20 -93l71 -62l-51 -55l-66 55q-49 -45 -136 -47q-93 0 -147 58.5t-53 142.5v166q0 84 54 142.5t147 58.5zM228 478q-52 0 -83.5 -34.5t-28.5 -105.5v-115q-3 -81 33 -111t79 -31q38 -1 62 21l-72 57l50 59l64 -55 q9 9 9 60v115q0 71 -32.5 107t-80.5 33z" />
<glyph unicode="R" horiz-adv-x="464" d="M25 561h219q95 -5 131.5 -54t39.5 -89q-2 -82 -37.5 -119t-73.5 -48l132 -251h-101l-117 241h-110v-241h-83v561zM108 316h140q45 -2 67 25t18 64q0 37 -23 59t-62 20h-140v-168z" />
<glyph unicode="S" horiz-adv-x="460" d="M241 565q108 -5 175 -61l-47 -66q-54 37 -132 46q-96 -16 -103 -83q8 -69 111 -77q171 -9 189 -163q-1 -156 -185 -169q-144 3 -224 81l55 64q53 -49 158 -57q115 11 109 80q-2 74 -107 80q-175 7 -190 163q12 158 191 162z" />
<glyph unicode="T" horiz-adv-x="405" d="M1 561h394v-77h-152v-484h-90v484h-152v77z" />
<glyph unicode="U" horiz-adv-x="453" d="M23 561h86v-363q0 -50 31.5 -83.5t81.5 -33.5t82 33t32 85v362h83v-362q5 -91 -54 -150t-140 -57q-93 1 -149 61.5t-53 147.5v360z" />
<glyph unicode="V" horiz-adv-x="455" d="M5 561h91l126 -424l128 424h91l-183 -561h-68z" />
<glyph unicode="W" horiz-adv-x="658" d="M289 561h64l108 -400l88 400h91l-139 -561h-73l-107 400l-107 -400h-73l-139 561h91l88 -400z" />
<glyph unicode="X" horiz-adv-x="452" d="M13 561h95l112 -191l111 191h99l-162 -273l173 -288h-104l-117 207l-120 -207h-99l168 288z" />
<glyph unicode="Y" horiz-adv-x="430" d="M0 561h90l118 -241l117 241h92l-169 -331v-230h-82v230z" />
<glyph unicode="Z" horiz-adv-x="412" d="M33 561h353v-66l-254 -413h254v-82h-361v75l254 409h-246v77z" />
<glyph unicode="[" horiz-adv-x="248" d="M25 561h148v-53h-74v-533h74v-57h-148v643z" />
<glyph unicode="\" horiz-adv-x="354" d="M25 566h63l191 -571h-63z" />
<glyph unicode="]" horiz-adv-x="248" d="M173 561h-148v-53h74v-533h-74v-57h148v643z" />
<glyph unicode="^" d="M468 332q-3 0 -7 1l-107 22v-212h-160v212l-108 -22q-4 -1 -7 -1q-13 0 -13 12q0 8 6 17l202 268l201 -268q7 -9 7 -17q0 -12 -14 -12z" />
<glyph unicode="_" horiz-adv-x="719" d="M84 -115v109h542v-109h-542z" />
<glyph unicode="`" horiz-adv-x="230" d="M25 566h104l76 -115h-76z" />
<glyph unicode="a" horiz-adv-x="376" d="M160 403q151 -2 165 -108v-295h-82v33q-29 -37 -94 -37q-82 0 -115 40t-32 83q2 60 39.5 89t71.5 28h130v52q1 18 -24.5 30t-58.5 10q-66 -1 -77 -28l-63 36q34 67 140 67zM155 71q51 -1 69.5 14.5t18.5 29.5v57h-104q-26 1 -44.5 -13t-18.5 -36q0 -25 19.5 -37.5 t59.5 -14.5z" />
<glyph unicode="b" horiz-adv-x="411" d="M186 78q45 0 62.5 27.5t17.5 95.5q0 69 -17.5 95.5t-62.5 26.5t-62 -27.5t-17 -95.5q0 -69 17.5 -95.5t61.5 -26.5zM25 562h82v-201q36 41 107 51q59 0 95 -40t36 -173q3 -124 -35.5 -163.5t-95.5 -38.5q-75 1 -107 44v-41h-82v562z" />
<glyph unicode="c" horiz-adv-x="354" d="M177 -4q89 3 147 69l-57 52q-21 -24 -40.5 -33t-43.5 -8q-36 0 -71 26t-33 99q-2 73 33 99t71 26q24 1 43.5 -8t40.5 -34l57 53q-58 67 -146 67q-174 -19 -177 -203q3 -186 176 -205z" />
<glyph unicode="d" horiz-adv-x="425" d="M189 78q-45 0 -62.5 27.5t-17.5 95.5q0 69 17.5 95.5t62.5 26.5t62 -27.5t17 -95.5q0 -69 -17.5 -95.5t-61.5 -26.5zM350 562h-82v-201q-36 41 -106 41q-59 4 -98 -33.5t-34 -169.5q-3 -124 35.5 -163.5t95.5 -38.5q75 1 107 44v-41h82v562z" />
<glyph unicode="e" horiz-adv-x="387" d="M185 404q76 0 123 -49.5t45 -126.5v-56h-246q-2 -50 28.5 -76.5t65.5 -25.5q19 -1 41.5 8t44.5 35l66 -52q-64 -63 -148 -64q-79 1 -129.5 48t-49.5 156q-1 104 42 153.5t117 49.5zM107 236h165q0 45 -24 69t-60 24q-33 0 -57 -24t-24 -69z" />
<glyph unicode="f" horiz-adv-x="222" d="M141 557h57v-73h-57q-11 0 -16.5 -5.5t-5.5 -16.5v-60h79v-66h-79v-336h-77v336h-41v66h41v60q0 47 24.5 71t74.5 24z" />
<glyph unicode="g" horiz-adv-x="428" d="M115 402q90 16 148 -41v41h76v-401q1 -73 -35 -119t-120 -49q-107 13 -151 68l58 51q33 -41 89 -39q74 2 83 87v41q-58 -66 -156 -41q-74 41 -82 112q-13 86 0 184q13 84 90 106zM260 136v135q-18 57 -81.5 56t-79.5 -89v-85q16 -76 78.5 -76t82.5 59z" />
<glyph unicode="h" horiz-adv-x="417" d="M25 562h79v-210q31 50 102 54q56 0 96 -37t40 -113v-256h-79v252q2 28 -24.5 50t-54.5 23q-29 -1 -54.5 -23t-25.5 -50v-252h-79v562z" />
<glyph unicode="i" horiz-adv-x="183" d="M25 562h83v-83h-83v83zM25 402h83v-402h-83v402z" />
<glyph unicode="j" horiz-adv-x="183" d="M25 402h83v-435q1 -64 -23.5 -97.5t-83.5 -33.5h-49v82h24q24 0 36.5 12.5t12.5 36.5v435zM25 562h83v-83h-83v83z" />
<glyph unicode="k" horiz-adv-x="403" d="M25 568h82v-355l156 189h100l-140 -159l155 -243h-102l-107 183l-62 -66v-117h-82v568z" />
<glyph unicode="l" horiz-adv-x="251" d="M109 566h-83v-435q-1 -64 23.5 -97.5t83.5 -33.5h49v82h-24q-24 0 -36.5 12.5t-12.5 36.5v435z" />
<glyph unicode="m" horiz-adv-x="659" d="M25 402h82v-41q33 41 107 43q75 -4 111 -51q32 48 118 51q64 0 102.5 -37.5t37.5 -100.5v-266h-82v247q2 31 -22.5 55.5t-56.5 22.5q-35 1 -56.5 -22t-20.5 -54v-249h-82v243q1 33 -19.5 57.5t-62.5 24.5q-31 0 -53.5 -22t-20.5 -52v-251h-82v402z" />
<glyph unicode="n" horiz-adv-x="420" d="M25 402h82v-47q31 44 106 51q49 0 90.5 -33.5t41.5 -134.5v-238h-82v237q3 41 -14 66t-60 27q-34 0 -58.5 -24.5t-22.5 -68.5v-237h-83v402z" />
<glyph unicode="o" horiz-adv-x="388" d="M188 325q-38 0 -62 -28.5t-24 -61.5v-34v-33q0 -32 24 -61.5t62 -29.5q37 0 62 29.5t25 62.5v33v34q0 35 -25 62t-62 27zM189 402q70 0 117 -45t47 -101v-56v-54q0 -55 -47 -102t-117 -47q-71 0 -117.5 47t-46.5 101v54v54q0 55 46.5 102t117.5 47z" />
<glyph unicode="p" horiz-adv-x="398" d="M25 -163h82v201q36 -41 106 -41q59 -4 96.5 34t35.5 169q0 125 -37 168t-94 43q-75 -10 -107 -53v41h-82v-562zM186 78q-44 0 -61.5 26.5t-17.5 95.5q0 68 17 95.5t62 27.5t62.5 -26.5t17.5 -95.5q0 -68 -17.5 -95.5t-62.5 -27.5z" />
<glyph unicode="q" horiz-adv-x="425" d="M350 -163h-82v201q-36 -41 -106 -41q-59 -4 -96.5 34.5t-35.5 168.5q2 124 38 168t94 44q74 -11 106 -54v41h82v-562zM189 78q44 0 61.5 26.5t17.5 95.5q0 68 -17 95.5t-62 27.5t-62.5 -26.5t-17.5 -95.5q0 -68 17.5 -95.5t62.5 -27.5z" />
<glyph unicode="r" horiz-adv-x="320" d="M25 402h82v-47q98 85 189 22l-58 -74q-16 25 -55 23q-26 0 -51 -24t-25 -47v-255h-82v402z" />
<glyph unicode="s" horiz-adv-x="395" d="M185 407q123 -7 156 -58l-48 -58q-54 39 -109 39q-28 0 -48.5 -14.5t-19.5 -33.5q0 -13 19.5 -27t60.5 -14q62 0 107 -23t45 -95q0 -55 -39.5 -90.5t-131.5 -35.5q-84 0 -168 69l49 57q71 -52 133 -52q45 0 60.5 15.5t15.5 31.5q1 24 -20 35.5t-65 11.5q-77 0 -110 33 t-33 85t36 88t110 36z" />
<glyph unicode="t" horiz-adv-x="256" d="M44 520h82v-118h57v-66h-57v-224q0 -19 9.5 -28.5t18.5 -9.5h29v-74h-29q-57 0 -83 25.5t-26 86.5v224h-42v66h41v118z" />
<glyph unicode="u" horiz-adv-x="420" d="M345 0h-82v47q-31 -44 -106 -51q-49 0 -90.5 33.5t-41.5 134.5v238h82v-237q-3 -41 14 -66t60 -27q34 0 58.5 24.5t22.5 68.5v237h83v-402z" />
<glyph unicode="v" horiz-adv-x="385" d="M1 402h88l95 -282l94 282h87l-148 -402h-70z" />
<glyph unicode="w" horiz-adv-x="591" d="M567 402h-90l-75 -279l-89 279h-29h-29l-89 -279l-75 279h-90l129 -402h71l83 277l83 -277h71z" />
<glyph unicode="x" horiz-adv-x="383" d="M1 402h103l75 -133l77 133h100l-128 -197l131 -205h-99l-82 130l-74 -130h-103l131 205z" />
<glyph unicode="y" horiz-adv-x="403" d="M25 402h82l96 -283l93 283h82l-181 -517q-26 -44 -81 -49h-50v82h36q19 -1 25.5 5t15.5 29l22 73z" />
<glyph unicode="z" horiz-adv-x="347" d="M33 402h291v-71l-201 -257h201v-74h-299v63l197 265h-189v74z" />
<glyph unicode="{" horiz-adv-x="496" d="M350 -129q-141 0 -141 132v56q0 76 -41 108q-34 26 -110 28v64q76 3 110 29q41 32 41 107v57q0 132 141 132h85v-55h-5q-90 0 -114 -32q-20 -25 -20 -119q0 -49 -30 -83q-25 -27 -82 -54v-28q57 -26 82 -54q30 -33 30 -82q0 -94 19 -119q24 -32 114 -32h6v-55h-85z" />
<glyph unicode="|" horiz-adv-x="201" d="M87 -129v713h28v-713h-28z" />
<glyph unicode="}" horiz-adv-x="500" d="M286 59v-56q0 -132 -142 -132h-86v55h6q91 0 115 32q19 25 19 119q0 49 31 82q25 28 82 54v28q-57 27 -82 54q-31 34 -31 83q0 94 -19 119q-24 32 -115 32h-6v55h86q142 0 142 -132v-57q0 -76 42 -107q34 -26 109 -29v-64q-77 0 -110 -25q-41 -31 -41 -111z" />
<glyph unicode="~" horiz-adv-x="708" d="M572 217q-55 -53 -113 -53q-43 0 -112 52.5t-105 52.5q-46 0 -63 -47q0 -2 -13 -64l-90 29q15 82 48 121q39 49 113 49q45 0 93 -26q42 -25 83 -51q26 -16 41 -16q67 0 89 91l81 -29q-5 -64 -52 -109z" />
<glyph unicode="&#xa1;" horiz-adv-x="267" d="M130 451q-23 0 -39 16.5t-16 39.5t16 39.5t39 16.5t39.5 -16.5t16.5 -39.5t-16.5 -39.5t-39.5 -16.5zM90 9v236l11 149h60l10 -149v-236h-81z" />
<glyph unicode="&#xa2;" d="M468 424h-7l-107 -22v212h-160v-212l-108 22h-7q-13 0 -13 -11q0 -9 6 -17l202 -268l201 268q7 8 7 17q0 11 -14 11z" />
<glyph unicode="&#xa3;" d="M133 538l92 -61l-150 -150l113 -113l150 150l61 -92q11 -17 22 -6q6 6 7 16l47 332l-332 -47q-10 -2 -16 -7q-11 -11 6 -22z" />
<glyph unicode="&#xa4;" d="M422 538l-92 -61l150 -150l-113 -113l-150 150l-61 -92q-11 -17 -22 -6q-6 6 -7 16l-47 332l332 -47q10 -2 16 -7q11 -11 -6 -22z" />
<glyph unicode="&#xa5;" d="M133 271l92 61l-150 150l113 113l150 -150l61 92q11 17 22 6q6 -6 7 -16l47 -332l-332 47q-10 1 -16 7q-11 11 6 22z" />
<glyph unicode="&#xa6;" d="M422 248l-92 61l150 150l-113 113l-150 -150l-61 91q-11 18 -22 7q-6 -6 -7 -16l-47 -333l332 48q10 1 16 7q11 11 -6 22z" />
<glyph unicode="&#xa7;" d="M468 332q-3 0 -7 1l-107 22v-212h-160v212l-108 -22q-4 -1 -7 -1q-13 0 -13 12q0 8 6 17l202 268l201 -268q7 -9 7 -17q0 -12 -14 -12z" />
<glyph unicode="&#xa8;" horiz-adv-x="583" d="M395 491q-23 0 -39.5 16.5t-16.5 39.5t16.5 39.5t39.5 16.5t39.5 -16.5t16.5 -39.5t-16.5 -39.5t-39.5 -16.5zM202 491q-23 0 -39.5 16.5t-16.5 39.5t16.5 39.5t39.5 16.5t39 -16.5t16 -39.5t-16 -39.5t-39 -16.5z" />
<glyph unicode="&#xa9;" horiz-adv-x="701" d="M389 228l22 -107q1 -4 1 -7q0 -13 -12 -13q-9 0 -17 6l-268 201l268 202q8 6 17 6q12 0 12 -13q0 -3 -1 -7l-22 -108h212v-160h-212z" />
<glyph unicode="&#xaa;" horiz-adv-x="704" d="M326 107q-8 -6 -17 -6q-11 0 -11 13v7l22 107h-212v160h212l-22 108v7q0 13 11 13q9 0 17 -6l268 -202z" />
<glyph unicode="&#xaf;" horiz-adv-x="418" d="M87 475v109h247v-109h-247z" />
<glyph unicode="&#xb0;" horiz-adv-x="427" d="M213 245q-60 0 -98 52q-35 47 -35 111t35 112q38 52 98 52t98 -52q34 -47 34 -112q0 -64 -35 -111q-38 -52 -97 -52zM213 510q-41 0 -66 -33q-22 -29 -22 -69q0 -39 23.5 -70t64.5 -31q40 0 64 31t24 70q0 40 -23 69q-25 33 -65 33z" />
<glyph unicode="&#xbf;" horiz-adv-x="488" d="M263 471q-23 0 -39 16.5t-16 39.5t16 39.5t39 16.5t39.5 -16.5t16.5 -39.5t-16.5 -39.5t-39.5 -16.5zM242 10q-77 0 -125 36q-53 39 -53 111q0 58 20 90q13 20 47 44q20 14 55 48q24 33 29 87h95v-8q1 -64 -21 -102q-18 -31 -70 -73q-48 -38 -48 -80q0 -59 69 -59 q31 0 69.5 14t62.5 36l49 -77q-60 -67 -179 -67z" />
<glyph unicode="&#xc0;" horiz-adv-x="633" d="M459 7l-39 118h-198l-39 -118h-122l198 554h120l198 -554h-118zM321 424l-74 -222h148zM305 610l-96 172h67l64 -172h-35z" />
<glyph unicode="&#xc1;" horiz-adv-x="639" d="M459 7l-39 118h-198l-39 -118h-122l198 554h120l198 -554h-118zM321 424l-74 -222h148zM290 612l96 172h-67l-64 -172h35z" />
<glyph unicode="&#xc2;" horiz-adv-x="643" d="M461 7l-39 118h-198l-40 -118h-122l199 554h120l198 -554h-118zM323 424l-74 -222h147zM404 606l-76 138l-75 -138h-49l92 173h66l92 -173h-50z" />
<glyph unicode="&#xc3;" horiz-adv-x="644" d="M459 7l-40 118h-197l-40 -118h-122l198 554h120l199 -554h-118zM320 424l-74 -222h148zM373 641q-20 0 -54 12q-37 13 -51 13q-32 0 -61 -36l-36 23q29 54 82 54q20 0 56.5 -12.5t56.5 -12.5q42 0 56 31l34 -25q-7 -21 -21 -28t-30 -13t-32 -6z" />
<glyph unicode="&#xc4;" horiz-adv-x="651" d="M446 7l-39 118h-198l-40 -118h-122l199 554h120l198 -554h-118zM308 424l-74 -222h147zM405 621q-23 0 -39.5 16t-16.5 40q0 23 16.5 39t39.5 16t39.5 -16t16.5 -39q0 -24 -16.5 -40t-39.5 -16zM212 621q-23 0 -39.5 16t-16.5 40q0 23 16.5 39t39.5 16t39 -16t16 -39 q0 -24 -16 -40t-39 -16z" />
<glyph unicode="&#xc5;" horiz-adv-x="689" d="M475 7l-31 115h-221l-31 -115h-131l198 531q-39 43 -39 76q0 46 33 73t82 27t82.5 -27t33.5 -73q0 -33 -39 -76l198 -531h-135zM335 687q-30 0 -49.5 -20t-19.5 -50q0 -31 19.5 -51t49.5 -20q31 0 50 20.5t19 50.5t-19 50t-50 20zM333 429l-85 -233h170z" />
<glyph unicode="&#xc6;" horiz-adv-x="910" d="M451 7v159h-204l-65 -159h-133l230 554h568v-100h-277v-114h257v-100h-257v-140h277v-100h-396zM451 467h-75l-88 -203h163v203z" />
<glyph unicode="&#xc7;" horiz-adv-x="626" d="M467 411q-46 56 -130 56q-81 0 -123 -54q-37 -48 -37 -129q0 -79 39 -128q42 -55 121 -55q73 0 116 41l105 -48q-57 -71 -163 -90v-16q2 -132 -136 -132q-32 0 -67 7l32 49q20 -4 38 -4q82 0 81 92q-126 2 -206.5 82.5t-80.5 201.5q0 132 74.5 207.5t206.5 75.5 q156 0 229 -101z" />
<glyph unicode="&#xc8;" horiz-adv-x="498" d="M66 7v554h366v-82h-259v-132h159v-82h-159v-176h259v-82h-366zM278 610l-96 172h67l64 -172h-35z" />
<glyph unicode="&#xc9;" horiz-adv-x="509" d="M75 7v554h366v-82h-259v-132h158v-82h-158v-176h259v-82h-366zM240 612l96 172h-68l-63 -172h35z" />
<glyph unicode="&#xca;" horiz-adv-x="504" d="M69 7v554h366v-82h-259v-132h158v-82h-158v-176h259v-82h-366zM317 610l-76 137l-75 -137h-48l92 172h65l92 -172h-50z" />
<glyph unicode="&#xcb;" horiz-adv-x="506" d="M70 7v554h366v-82h-259v-132h158v-82h-158v-176h259v-82h-366zM355 621q-23 0 -39 16t-16 40q0 23 16 39t39 16t39.5 -16t16.5 -39q0 -24 -16.5 -40t-39.5 -16zM162 621q-23 0 -39.5 16t-16.5 40q0 23 16.5 39t39.5 16t39 -16t16 -39q0 -24 -16 -40t-39 -16z" />
<glyph unicode="&#xcc;" horiz-adv-x="281" d="M86 7v554h101v-554h-101zM162 610l-95 172h67l64 -172h-36z" />
<glyph unicode="&#xcd;" horiz-adv-x="268" d="M83 7v554h101v-554h-101zM110 612l96 172h-68l-63 -172h35z" />
<glyph unicode="&#xce;" horiz-adv-x="341" d="M121 7v554h101v-554h-101zM253 610l-76 137l-75 -137h-49l92 172h66l92 -172h-50z" />
<glyph unicode="&#xcf;" horiz-adv-x="331" d="M110 7v554h102v-554h-102zM259 621q-23 0 -39.5 16t-16.5 40q0 23 16.5 39t39.5 16t39.5 -16t16.5 -39q0 -24 -16.5 -40t-39.5 -16zM65 621q-23 0 -39 16t-16 40q0 23 16 39t39 16t39.5 -16t16.5 -39q0 -24 -16.5 -40t-39.5 -16z" />
<glyph unicode="&#xd0;" horiz-adv-x="697" d="M308 7h-188v231h-63v96h63v227h193q147 0 230 -65q91 -72 91 -213q0 -139 -95 -211q-85 -65 -231 -65zM291 456h-55v-122h124v-96h-124v-126h55q222 0 222 173q0 109 -65 145q-44 26 -157 26z" />
<glyph unicode="&#xd1;" horiz-adv-x="651" d="M446 7l-260 419v-419h-110v554h149l226 -351v351h110v-554h-115zM383 641q-21 0 -55 12q-37 13 -51 13q-31 0 -61 -36l-35 23q29 54 82 54q19 0 56 -12.5t57 -12.5q42 0 56 31l33 -25q-6 -21 -19 -29q-16 -6 -31.5 -12t-31.5 -6z" />
<glyph unicode="&#xd2;" horiz-adv-x="659" d="M335 1q-127 0 -199.5 77t-72.5 206q0 131 71 207t201 76q129 0 201 -76.5t72 -206.5q0 -132 -71.5 -207.5t-201.5 -75.5zM335 471q-83 0 -121 -57q-30 -46 -30 -130q0 -95 38.5 -141t112.5 -46q79 0 117 52q34 46 34 135q0 87 -32 133q-38 54 -119 54zM335 610l-96 172 h68l63 -172h-35z" />
<glyph unicode="&#xd3;" horiz-adv-x="666" d="M332 1q-127 0 -199.5 77t-72.5 206q0 131 71 207t201 76t201.5 -76.5t71.5 -206.5q0 -132 -71.5 -207.5t-201.5 -75.5zM333 471q-84 0 -122 -57q-30 -46 -30 -130q0 -95 38.5 -141t113.5 -46q78 0 116 52q34 46 34 135q0 87 -32 133q-37 54 -118 54zM321 612l96 172h-68 l-63 -172h35z" />
<glyph unicode="&#xd4;" horiz-adv-x="669" d="M337 1q-128 0 -200.5 77t-72.5 206q0 131 71.5 207t201.5 76q129 0 202 -77q70 -76 70 -206q0 -132 -71 -207.5t-201 -75.5zM337 471q-84 0 -121 -57q-30 -46 -30 -130q0 -95 38.5 -141t112.5 -46q79 0 117 52q34 46 34 135q0 87 -32 133q-38 54 -119 54zM412 610 l-76 137l-76 -137h-48l92 172h66l92 -172h-50z" />
<glyph unicode="&#xd5;" horiz-adv-x="672" d="M338 1q-127 0 -199.5 77t-72.5 206q0 131 71 207t201 76t201.5 -76.5t71.5 -206.5q0 -132 -70 -207q-73 -76 -203 -76zM339 471q-84 0 -122 -57q-29 -46 -29 -130q0 -95 38 -141t113 -46q78 0 116 52q34 46 34 135q0 87 -32 133q-37 54 -118 54zM402 641q-21 0 -55 12 q-37 13 -51 13q-31 0 -61 -36l-35 23q29 54 82 54q19 0 56 -12.5t57 -12.5q42 0 56 31l33 -25q-6 -21 -19 -29q-16 -6 -31.5 -12t-31.5 -6z" />
<glyph unicode="&#xd6;" horiz-adv-x="674" d="M339 1q-127 0 -199.5 77t-72.5 206q0 131 71 207t201 76t201.5 -76.5t71.5 -206.5q0 -132 -71 -207.5t-202 -75.5zM340 471q-84 0 -122 -57q-29 -46 -29 -130q0 -95 38 -141t113 -46q78 0 116 52q34 46 34 135q0 87 -32 133q-37 54 -118 54zM429 621q-23 0 -39 16t-16 40 q0 23 16 39t39 16q24 0 40 -16t16 -39q0 -24 -16 -40t-40 -16zM236 621q-23 0 -39.5 16t-16.5 40q0 23 16.5 39t39.5 16t39.5 -16t16.5 -39q0 -24 -16.5 -40t-39.5 -16z" />
<glyph unicode="&#xd7;" horiz-adv-x="579" d="M454 29l-165 175l-164 -175l-48 51l165 175l-165 176l48 51l164 -176l165 176l48 -51l-165 -176l165 -175z" />
<glyph unicode="&#xd8;" horiz-adv-x="688" d="M350 0q-39 0 -81 10l-5 -9h-75l17 33q-128 78 -128 250q0 131 71 207t201 76q57 0 113 -18l17 35h77l-34 -68q100 -80 100 -232q0 -132 -71.5 -208t-201.5 -76zM472 415l-158 -316q25 -2 36 -2q151 0 151 187q0 70 -29 131zM350 471q-151 0 -151 -187q0 -100 53 -157 l166 332q-36 12 -68 12z" />
<glyph unicode="&#xd9;" horiz-adv-x="631" d="M308 5q-110 0 -173 56.5t-63 163.5v336h114v-319q0 -135 122 -135q123 0 123 135v319h113v-335q0 -108 -63 -164.5t-173 -56.5zM322 610l-96 172h67l64 -172h-35z" />
<glyph unicode="&#xda;" horiz-adv-x="678" d="M332 5q-110 0 -173 56.5t-63 163.5v336h113v-319q0 -135 123 -135t123 135v319h113v-335q0 -108 -63 -164.5t-173 -56.5zM319 612l96 172h-67l-64 -172h35z" />
<glyph unicode="&#xdb;" horiz-adv-x="634" d="M310 5q-110 0 -173 56.5t-63 163.5v336h113v-319q0 -135 123 -135t123 135v319h113v-335q0 -108 -63 -164.5t-173 -56.5zM391 610l-76 137l-75 -137h-49l92 172h66l92 -172h-50z" />
<glyph unicode="&#xdc;" horiz-adv-x="618" d="M312 5q-110 0 -171 55q-64 58 -64 165v336h113v-319q0 -135 122 -135q123 0 123 135v319h113v-335q0 -108 -62.5 -164.5t-173.5 -56.5zM409 621q-23 0 -39.5 16t-16.5 40q0 23 16.5 39t39.5 16t39.5 -16t16.5 -39q0 -24 -16.5 -40t-39.5 -16zM215 621q-23 0 -39.5 16 t-16.5 40q0 23 16.5 39t39.5 16t39.5 -16t16.5 -39q0 -24 -16.5 -40t-39.5 -16z" />
<glyph unicode="&#xdd;" horiz-adv-x="681" d="M396 222v-215h-114v208l-203 346h129l134 -246l130 246h123zM307 612l96 172h-68l-63 -172h35z" />
<glyph unicode="&#xde;" horiz-adv-x="544" d="M280 110h-102v-103h-111v554h111v-88h106q214 0 214 -170q0 -91 -63 -144q-60 -49 -155 -49zM317 370q-28 7 -96 7h-43v-171h53q75 0 103 12q48 19 48 82q0 53 -65 70z" />
<glyph unicode="&#xdf;" horiz-adv-x="582" d="M388 20q-28 -10 -73 -12q-38 -3 -41 -3q-9 0 -17 1v77h48q45 0 76 27.5t31 72.5q0 82 -138 96v75q40 9 58 20q31 20 31 63q0 33 -32 49q-25 12 -60 12q-93 0 -93 -82v-408h-101v396q0 90 52 137t144 47q127 0 181 -82q20 -30 20 -62q0 -76 -125 -120q171 -47 171 -148 q0 -53 -39 -95.5t-93 -60.5z" />
<glyph unicode="&#xe0;" horiz-adv-x="524" d="M356 9v35q-74 -38 -136 -38q-71 0 -110 37t-39 106q0 75 52 115q47 36 126 36q52 0 107 -30q-2 106 -102 106q-53 0 -90 -26l-33 58q50 43 138 43q78 0 128 -35q57 -40 57 -114v-293h-98zM355 185q0 14 -25.5 27t-53.5 13q-104 0 -104 -73q0 -32 31 -49q25 -13 61 -13 q17 0 52 14q39 15 39 27v54zM278 480l-96 172h68l63 -172h-35z" />
<glyph unicode="&#xe1;" horiz-adv-x="519" d="M351 9v35q-73 -38 -136 -38q-71 0 -110 37t-39 106q0 75 52 115q47 36 126 36q52 0 107 -30q-2 106 -102 106q-53 0 -90 -26l-32 58q49 43 137 43q78 0 128 -35q57 -40 57 -114v-293h-98zM350 185q0 14 -25.5 27t-53.5 13q-104 0 -104 -73q0 -32 32 -49q25 -13 60 -13 q17 0 52 14q39 15 39 27v54zM278 480l95 172h-67l-64 -172h36z" />
<glyph unicode="&#xe2;" horiz-adv-x="540" d="M364 9v35q-73 -38 -136 -38q-70 0 -109.5 37t-39.5 106q0 75 52 115q47 36 126 36q52 0 107 -30q-2 106 -102 106q-53 0 -90 -26l-32 58q50 43 138 43q77 0 127 -35q57 -40 57 -114v-293h-98zM363 185q0 14 -25.5 27t-53.5 13q-104 0 -104 -73q0 -32 32 -49 q25 -13 60 -13q17 0 52 14q39 15 39 27v54zM368 480l-76 138l-75 -138h-49l92 172h66l92 -172h-50z" />
<glyph unicode="&#xe3;" horiz-adv-x="558" d="M368 9v35q-73 -38 -136 -38q-70 0 -109.5 37t-39.5 106q0 75 52 115q47 36 126 36q52 0 107 -30q-1 106 -101 106q-54 0 -90 -26l-33 58q50 43 138 43q78 0 128 -35q57 -40 57 -114v-293h-99zM367 185q0 14 -25.5 27t-53.5 13q-104 0 -104 -73q0 -32 32 -49 q25 -13 60 -13q17 0 54 14.5t37 26.5v54zM356 511q-20 0 -54 12q-37 13 -51 13q-32 0 -61 -36l-36 23q29 54 82 54q19 0 56 -12.5t57 -12.5q42 0 56 31l34 -25q-7 -21 -21 -28t-30 -13t-32 -6z" />
<glyph unicode="&#xe4;" horiz-adv-x="544" d="M362 9v35q-73 -38 -136 -38q-70 0 -109.5 37t-39.5 106q0 75 52 115q47 36 126 36q52 0 107 -30q-1 106 -101 106q-54 0 -91 -26l-32 58q50 43 138 43q78 0 128 -35q57 -40 57 -114v-293h-99zM361 185q0 14 -25.5 27t-53.5 13q-104 0 -104 -73q0 -32 32 -49 q25 -13 60 -13q17 0 52 14q39 15 39 27v54zM367 491q-23 0 -39.5 16.5t-16.5 39.5t16.5 39t39.5 16t39.5 -16t16.5 -39t-16.5 -39.5t-39.5 -16.5zM174 491q-24 0 -40 16.5t-16 39.5t16 39t40 16q23 0 39 -16t16 -39t-16 -39.5t-39 -16.5z" />
<glyph unicode="&#xe5;" horiz-adv-x="538" d="M356 9v35q-74 -38 -136 -38q-70 0 -110 38.5t-40 107.5q0 75 52 115q47 35 127 35q57 0 111 -25q-21 96 -106 96q-49 0 -89 -25l-34 69q22 23 88 38q-47 43 -47 86t29.5 72t72.5 29t72 -29t29 -72q0 -59 -47 -91q126 -43 126 -148v-293h-98zM274 613q-31 0 -50 -21 t-19 -51t19 -51t50 -21q30 0 49 21t19 51q0 29 -19 50.5t-49 21.5zM356 199q0 9 -37 19q-30 7 -43 7q-104 0 -104 -73q0 -32 31 -49q25 -13 61 -13q22 0 52 10q40 13 40 31v68z" />
<glyph unicode="&#xe6;" horiz-adv-x="857" d="M457 175q-1 -36 30 -63q24 -21 53 -26q14 -2 30 -2q57 0 84 24l70 -52q-52 -57 -161 -57q-47 0 -82 18q-27 13 -75 54q-19 -16 -56 -45q-1 -1 -15 -7q-48 -20 -100 -20q-74 0 -119 40.5t-45 112.5q0 75 53 115q47 35 126 35q57 0 111 -25q-20 96 -105 96q-50 0 -89 -25 l-35 69q40 40 131 40q100 0 160 -60q62 49 150 49q102 0 157 -86q40 -63 41 -185h-314zM566 365q-44 0 -77 -32t-33 -83h215q0 51 -30 83t-75 32zM354 208q-25 17 -77 17q-104 0 -104 -73q0 -32 32 -49q25 -13 60 -13q22 0 53 10q39 13 39 31v41q0 5 -1.5 17t-1.5 19z" />
<glyph unicode="&#xe7;" horiz-adv-x="497" d="M324 3q1 -17 1 -25q0 -116 -134 -116q-20 0 -41 3l19 47q9 -2 20 -2q37 0 62 22.5t25 66.5q-102 4 -159 65q-54 58 -54 156q0 95 61 158t155 63q83 0 142 -51l-75 -56q-26 20 -67 20q-57 0 -85 -43q-24 -36 -24 -92q0 -133 110 -133q47 0 73 24l83 -50q-41 -42 -112 -57z " />
<glyph unicode="&#xe8;" horiz-adv-x="571" d="M187 175q-1 -36 30 -63q24 -21 53 -26q14 -2 30 -2q49 0 79 30l70 -52q-56 -63 -149 -63q-98 0 -157 59.5t-59 158.5q0 106 57 167.5t162 61.5q101 0 157 -86q40 -63 41 -185h-314zM296 365q-45 0 -76 -31q-34 -33 -34 -84h215q0 51 -30 83t-75 32zM292 480l-95 172h67 l64 -172h-36z" />
<glyph unicode="&#xe9;" horiz-adv-x="565" d="M180 175q0 -36 30 -63q24 -21 54 -26q13 -2 30 -2q48 0 78 30l70 -52q-56 -63 -149 -63q-98 0 -157 59.5t-59 158.5q0 106 57 167.5t162 61.5q102 0 157 -86q41 -63 41 -185h-314zM289 365q-44 0 -77 -32t-33 -83h215q0 51 -30 83t-75 32zM257 480l96 172h-68l-63 -172 h35z" />
<glyph unicode="&#xea;" horiz-adv-x="563" d="M173 175q-1 -36 30 -63q24 -21 53 -26q14 -2 30 -2q49 0 79 30l70 -52q-56 -63 -149 -63q-98 0 -157 59.5t-59 158.5q0 106 57 167.5t162 61.5q101 0 157 -86q40 -63 41 -185h-314zM282 365q-45 0 -76 -31q-34 -33 -34 -84h215q0 51 -30 83t-75 32zM351 480l-76 138 l-75 -138h-49l92 172h66l92 -172h-50z" />
<glyph unicode="&#xeb;" horiz-adv-x="564" d="M166 175q-1 -36 30 -63q24 -21 53 -26q14 -2 30 -2q49 0 79 30l70 -52q-56 -63 -149 -63q-98 0 -157 59.5t-59 158.5q0 106 57 167.5t162 61.5q102 0 157 -86q40 -63 41 -185h-314zM275 365q-44 0 -77 -32t-33 -83h215q0 51 -30 83t-75 32zM376 491q-23 0 -39 16.5 t-16 39.5t16 39t39 16t39.5 -16t16.5 -39t-16.5 -39.5t-39.5 -16.5zM183 491q-23 0 -39.5 16.5t-16.5 39.5t16.5 39t39.5 16t39.5 -16t16.5 -39t-16.5 -39.5t-39.5 -16.5z" />
<glyph unicode="&#xec;" horiz-adv-x="265" d="M146 480l-95 172h67l64 -172h-36zM77 7v407h101v-407h-101z" />
<glyph unicode="&#xed;" horiz-adv-x="265" d="M75 7v407h101v-407h-101zM126 480l95 172h-67l-64 -172h36z" />
<glyph unicode="&#xee;" horiz-adv-x="256" d="M193 504l-56 109l-54 -109h-37l63 122h59l63 -122h-38zM98 7v405h81v-405h-81z" />
<glyph unicode="&#xef;" horiz-adv-x="245" d="M241 491q-23 0 -39.5 16.5t-16.5 39.5t16.5 39t39.5 16t39.5 -16t16.5 -39t-16.5 -39.5t-39.5 -16.5zM47 491q-23 0 -39 16.5t-16 39.5t16 39t39 16t39.5 -16t16.5 -39t-16.5 -39.5t-39.5 -16.5zM100 7v408h87v-408h-87z" />
<glyph unicode="&#xf0;" horiz-adv-x="602" d="M292 -5q-97 0 -153 52t-56 147q0 84 53 134.5t138 50.5q23 0 52 -9q14 -4 77 -29q-51 99 -96 148l-121 -50l-17 40l106 41q-40 31 -88 63h119q15 -9 46 -32l79 34l17 -40l-60 -25q61 -73 87 -130q30 -65 30 -140q0 -115 -49 -181q-56 -74 -164 -74zM396 256 q-53 39 -114 39q-92 0 -92 -98q0 -56 22 -92q27 -43 84 -43q104 0 104 145q0 21 -4 49z" />
<glyph unicode="&#xf1;" horiz-adv-x="553" d="M364 7v242q0 41 -22.5 68.5t-64.5 27.5q-40 0 -70 -27.5t-30 -68.5v-242h-99v425h99v-51q63 58 135 58q69 0 111 -41t42 -110v-281h-101zM345 511q-20 0 -54 12q-37 13 -51 13q-32 0 -61 -36l-36 23q29 54 82 54q20 0 56.5 -12.5t56.5 -12.5q42 0 56 31l34 -25 q-7 -21 -21 -28t-30 -13t-32 -6z" />
<glyph unicode="&#xf2;" horiz-adv-x="564" d="M286 -1q-102 0 -159 60.5t-57 160.5q0 95 61 158t155 63t154.5 -63t60.5 -158q0 -99 -58.5 -160t-156.5 -61zM375 309q-28 45 -89 45q-56 0 -84 -41q-25 -36 -25 -94q0 -57 20 -89q27 -44 90 -44q79 0 100 68q7 26 7 65q0 58 -19 90zM300 480l-96 172h67l64 -172h-35z " />
<glyph unicode="&#xf3;" horiz-adv-x="572" d="M293 -1q-101 0 -158.5 60.5t-57.5 160.5q0 95 61 158t155 63t154.5 -63t60.5 -158q0 -99 -58.5 -160t-156.5 -61zM382 309q-27 45 -89 45q-55 0 -84 -41q-25 -36 -25 -94q0 -57 20 -89q27 -44 90 -44q80 0 100 68q8 26 8 65q0 58 -20 90zM325 480l96 172h-67l-64 -172h35 z" />
<glyph unicode="&#xf4;" horiz-adv-x="574" d="M287 -1q-101 0 -158 60.5t-57 160.5q0 95 60.5 158t154.5 63q95 0 155.5 -63t60.5 -158q0 -99 -58.5 -160t-157.5 -61zM376 309q-27 45 -89 45q-55 0 -84 -41q-24 -36 -24 -94q0 -57 20 -89q27 -44 89 -44q80 0 100 68q8 26 8 65q0 58 -20 90zM364 480l-76 138l-76 -138 h-48l92 172h65l92 -172h-49z" />
<glyph unicode="&#xf5;" horiz-adv-x="584" d="M299 -1q-101 0 -158.5 60.5t-57.5 160.5q0 95 61 158t155 63q95 0 155.5 -63t60.5 -158q0 -99 -58.5 -160t-157.5 -61zM388 309q-27 45 -89 45q-55 0 -84 -41q-25 -36 -25 -94q0 -57 20 -89q28 -44 90 -44q80 0 100 68q8 26 8 65q0 58 -20 90zM364 511q-21 0 -55 12 q-37 13 -51 13q-31 0 -61 -36l-35 23q29 54 82 54q19 0 56 -12.5t57 -12.5q42 0 56 31l33 -25q-6 -21 -19 -29q-16 -6 -31.5 -12t-31.5 -6z" />
<glyph unicode="&#xf6;" horiz-adv-x="595" d="M294 -1q-101 0 -158.5 60.5t-57.5 160.5q0 95 61 158t155 63t154.5 -63t60.5 -158q0 -99 -58.5 -160t-156.5 -61zM383 309q-27 45 -89 45q-55 0 -84 -41q-25 -36 -25 -94q0 -57 20 -89q27 -44 90 -44q80 0 100 68q8 26 8 65q0 58 -20 90zM397 491q-23 0 -39.5 16.5 t-16.5 39.5t16.5 39t39.5 16t39.5 -16t16.5 -39t-16.5 -39.5t-39.5 -16.5zM203 491q-23 0 -39 16.5t-16 39.5t16 39t39 16q24 0 40 -16t16 -39t-16 -39.5t-40 -16.5z" />
<glyph unicode="&#xf7;" horiz-adv-x="583" d="M304 380q-31 0 -52.5 22.5t-21.5 53.5q0 32 21.5 54t52.5 22t53 -22t22 -54q0 -31 -22 -53.5t-53 -22.5zM60 217v76h478v-76h-478zM304 -18q-31 0 -52.5 21t-21.5 51q0 29 21.5 50t52.5 21t53 -21t22 -50q0 -30 -22 -51t-53 -21z" />
<glyph unicode="&#xf8;" horiz-adv-x="573" d="M290 -1q-102 0 -152 57q-64 72 -64 165q0 104 56.5 162.5t159.5 58.5q98 0 157 -60.5t59 -160.5q0 -105 -56.5 -163.5t-159.5 -58.5zM338 337q-18 13 -48 13q-49 0 -78.5 -30t-29.5 -79q0 -40 26 -91l154 170zM385 295l-163 -176q15 -8 38 -20q16 -7 31 -7q53 0 83 36 q27 33 27 86q0 31 -16 81z" />
<glyph unicode="&#xf9;" horiz-adv-x="548" d="M375 9v50q-63 -57 -135 -57q-69 0 -111 40.5t-42 109.5v281h101v-241q0 -41 22.5 -68.5t64.5 -27.5q41 0 70.5 27.5t29.5 68.5v241h99v-424h-99zM305 480l-96 172h67l64 -172h-35z" />
<glyph unicode="&#xfa;" horiz-adv-x="559" d="M374 9v50q-63 -57 -135 -57q-69 0 -111 40.5t-42 109.5v281h101v-241q0 -41 22.5 -68.5t64.5 -27.5q41 0 70.5 27.5t29.5 68.5v241h100v-424h-100zM280 480l96 172h-67l-64 -172h35z" />
<glyph unicode="&#xfb;" horiz-adv-x="535" d="M363 9v50q-62 -57 -134 -57q-69 0 -111 40.5t-42 109.5v281h100v-241q0 -41 23 -68.5t64 -27.5t70.5 27.5t29.5 68.5v241h100v-424h-100zM350 480l-76 138l-76 -138h-48l92 172h66l92 -172h-50z" />
<glyph unicode="&#xfc;" horiz-adv-x="534" d="M357 9v50q-62 -57 -134 -57q-69 0 -111 40.5t-42 109.5v281h101v-241q0 -41 22.5 -68.5t64.5 -27.5q40 0 69.5 27.5t29.5 68.5v241h100v-424h-100zM361 491q-24 0 -40 16.5t-16 39.5t16 39t40 16q23 0 39 -16t16 -39t-16 -39.5t-39 -16.5zM167 491q-23 0 -39.5 16.5 t-16.5 39.5t16.5 39t39.5 16t39.5 -16t16.5 -39t-16.5 -39.5t-39.5 -16.5z" />
<glyph unicode="&#xfd;" horiz-adv-x="594" d="M298 -173h-113l69 174l-175 432h122l113 -297l117 297h106zM280 480l96 172h-67l-64 -172h35z" />
<glyph unicode="&#xfe;" horiz-adv-x="546" d="M301 12q-76 0 -130 47v-195h-101v720h101v-239q55 77 121 77q80 0 132 -57t52 -139q0 -87 -45 -147q-49 -67 -130 -67zM280 331q-45 0 -77 -36.5t-32 -81.5q0 -44 32 -80.5t77 -36.5t77 36.5t32 80.5q0 45 -32 81.5t-77 36.5z" />
<glyph unicode="&#xff;" horiz-adv-x="585" d="M290 -173h-113l69 174l-175 432h122l113 -297l117 297h106zM403 491q-23 0 -39 16.5t-16 39.5t16 39t39 16t39.5 -16t16.5 -39t-16.5 -39.5t-39.5 -16.5zM210 491q-23 0 -39.5 16.5t-16.5 39.5t16.5 39t39.5 16t39.5 -16t16.5 -39t-16.5 -39.5t-39.5 -16.5z" />
<glyph unicode="&#x131;" horiz-adv-x="328" d="M141 7v407h100v-407h-100z" />
<glyph unicode="&#x2c6;" horiz-adv-x="576" d="M380 480l-76 138l-75 -138h-49l92 172h66l92 -172h-50z" />
<glyph unicode="&#x2c7;" horiz-adv-x="394" d="M239 445h-65l-92 172h48l76 -137l76 137h49z" />
<glyph unicode="&#x2d8;" horiz-adv-x="397" d="M199 444q-59 0 -88 54q-20 38 -29 114h41q15 -111 76 -111q59 0 75 111h41q-8 -77 -28 -114q-28 -54 -88 -54z" />
<glyph unicode="&#x2d9;" horiz-adv-x="297" d="M144 494q-25 0 -42.5 17t-17.5 42q0 24 17.5 41.5t42.5 17.5q24 0 41.5 -17.5t17.5 -41.5q0 -25 -17.5 -42t-41.5 -17z" />
<glyph unicode="&#x2da;" horiz-adv-x="355" d="M176 450q-40 0 -67.5 28t-27.5 68q0 39 27.5 67.5t67.5 28.5q39 0 66.5 -28.5t27.5 -67.5q0 -40 -27.5 -68t-66.5 -28zM178 610q-25 0 -43.5 -18t-18.5 -43q0 -26 18.5 -43.5t43.5 -17.5t43.5 17.5t18.5 43.5q0 25 -18.5 43t-43.5 18z" />
<glyph unicode="&#x2db;" horiz-adv-x="285" d="M227 -131q-31 -7 -50 -7q-96 0 -96 146q0 13 1 38h30q-1 -19 -1 -30q0 -38 20 -64q22 -29 61 -29q14 0 39 8q-3 -35 -4 -62z" />
<glyph unicode="&#x2dc;" horiz-adv-x="588" d="M369 511q-21 0 -55 12q-37 13 -51 13q-31 0 -61 -36l-35 23q29 54 82 54q19 0 56 -12.5t57 -12.5q42 0 56 31l33 -25q-6 -21 -19 -29q-16 -6 -31.5 -12t-31.5 -6z" />
<glyph unicode="&#x2dd;" horiz-adv-x="410" d="M274 471h-41l52 173h67zM123 471h-41l52 173h67z" />
<glyph unicode="&#x2018;" horiz-adv-x="241" d="M132 442q-23 0 -39 16.5t-16 39.5q0 51 21 83q24 36 68 40v-5q-46 -7 -50 -63l17 1q22 0 38.5 -16.5t16.5 -39.5t-16.5 -39.5t-39.5 -16.5z" />
<glyph unicode="&#x2019;" horiz-adv-x="240" d="M87 405v5q46 7 50 63h-16q-23 -1 -39.5 15.5t-16.5 39.5q0 24 16.5 40t39.5 16t39.5 -16t16.5 -40q0 -50 -22 -83q-23 -36 -68 -40z" />
<glyph unicode="&#x201a;" horiz-adv-x="244" d="M94 -61h-31l43 240h68z" />
<glyph unicode="&#x201b;" horiz-adv-x="209" d="M120 344h-68l80 240h31z" />
<glyph unicode="&#x201c;" horiz-adv-x="401" d="M290 442q-23 0 -39.5 16.5t-16.5 39.5q0 51 22 83q24 36 68 40v-5q-46 -7 -50 -63l17 1q22 0 38.5 -16.5t16.5 -39.5t-16.5 -39.5t-39.5 -16.5zM123 442q-23 0 -39.5 16.5t-16.5 39.5q0 51 22 83q24 36 68 40v-5q-46 -7 -50 -63l16 1q23 0 39.5 -16.5t16.5 -39.5 t-16.5 -39.5t-39.5 -16.5z" />
<glyph unicode="&#x201d;" horiz-adv-x="386" d="M247 405l1 5q45 7 49 63h-16q-23 -1 -39 15.5t-16 39.5q0 24 16 40t39 16t39.5 -16t16.5 -40q0 -50 -22 -83q-23 -36 -68 -40zM80 405v5q46 7 50 63h-16q-23 -1 -39.5 15.5t-16.5 39.5q0 24 16.5 40t39.5 16t39.5 -16t16.5 -40q0 -50 -22 -83q-23 -36 -68 -40z" />
<glyph unicode="&#x2026;" horiz-adv-x="617" d="M491 7q-23 0 -39 16.5t-16 39.5t16 39.5t39 16.5t39.5 -16.5t16.5 -39.5t-16.5 -39.5t-39.5 -16.5zM315 7q-23 0 -39 16.5t-16 39.5t16 39.5t39 16.5t39.5 -16.5t16.5 -39.5t-16.5 -39.5t-39.5 -16.5zM139 7q-23 0 -39 16.5t-16 39.5t16 39.5t39 16.5t39.5 -16.5 t16.5 -39.5t-16.5 -39.5t-39.5 -16.5z" />
<glyph unicode="&#xe000;" horiz-adv-x="400" d="M0 400h400v-400h-400v400z" />
</font>
</defs>
</svg>
